<svg version="1.2" xmlns="http://www.w3.org/2000/svg" viewBox="0 0 2235 406" width="2235" height="406"><defs><linearGradient id="P" gradientUnits="userSpaceOnUse"/><linearGradient id="g1" x2="1" href="#P" gradientTransform="matrix(269.956,-55.132,14.327,70.155,198.542,334.645)"><stop stop-color="#0a5438"/><stop offset="1" stop-color="#27c622"/></linearGradient><linearGradient id="g2" x2="1" href="#P" gradientTransform="matrix(-256.119,191.217,-76.786,-102.848,472.172,178.18)"><stop stop-color="#fff" stop-opacity="1"/><stop offset=".12" stop-color="#fff7e0" stop-opacity=".88"/><stop offset="1" stop-color="#fdc100" stop-opacity="0"/></linearGradient><linearGradient id="g3" x2="1" href="#P" gradientTransform="matrix(108.607,187.593,-603.053,349.136,280.687,214.076)"><stop stop-color="#0a5438"/><stop offset=".19" stop-color="#0b5837"/><stop offset=".38" stop-color="#0e6335"/><stop offset=".56" stop-color="#137731"/><stop offset=".75" stop-color="#1a922c"/><stop offset=".92" stop-color="#23b525"/><stop offset="1" stop-color="#27c622"/></linearGradient><linearGradient id="g4" x2="1" href="#P" gradientTransform="matrix(-225.175,496.371,-385.611,-174.929,438.941,-182.436)"><stop offset=".04" stop-color="#cd003b"/><stop offset=".47" stop-color="#f00"/><stop offset=".91" stop-color="#fdc100"/></linearGradient><linearGradient id="g5" x2="1" href="#P" gradientTransform="matrix(304.556,259.272,-592.95,696.513,67.517,23.79)"><stop stop-color="#fff" stop-opacity="1"/><stop offset=".18" stop-color="#fff5d5" stop-opacity=".82"/><stop offset=".59" stop-color="#fedb6d" stop-opacity=".41"/><stop offset="1" stop-color="#fdc100" stop-opacity="0"/></linearGradient></defs><style>.a{fill:url(#g1)}.b{fill:url(#g2)}.c{fill:none}.d{fill:url(#g3)}.e{fill:url(#g4)}.f{fill:url(#g5)}</style><path  d="m591.5 291.8h131.3v37.1h-188v-20l130.3-183.9h-120v-36.7h177.4v19.2z"/><path  d="m919.8 258.4h-135.8c3.1 24.8 23.7 40.6 53.6 40.6 19.3 0 38.9-6.9 48.9-17.6l23.3 22.7c-16.8 18.3-44.3 29.6-73.2 29.6-27.8 0-50.2-8.3-67-24.4-16.9-16.2-25.1-38.2-25.1-65.3 0-26.5 8.2-47.8 24.4-64 16.2-16.1 37.1-24.4 63.6-24.4 59.5 0 92.8 39.2 87.3 102.8zm-135.4-29.9h98.6c-2.7-24.4-21.6-39.5-49.5-39.5-26.4 0-44 14.4-49.1 39.5z"/><path  d="m1090.3 159.1h34.4v169.8h-34.4l-0.4-22.7c-14 17.5-34.7 26.5-61.8 26.5q-37.7 0-60.9-24.8c-15.4-16.5-23.3-37.8-23.3-63.9 0-26.1 7.9-47.5 23.3-64q23.2-24.7 60.9-24.7c27.1 0 47.8 8.9 61.8 26.5zm-56 138.5c15.5 0 27.9-5.2 37.5-15.1 9.6-10 14.4-22.7 14.4-38.5 0-15.8-4.8-28.9-14.4-38.9-9.6-9.9-22-14.7-37.5-14.7-15.5 0-27.8 4.8-37.5 14.7-9.6 10-14.4 23.1-14.4 38.9 0 15.8 4.8 28.5 14.4 38.5 9.7 9.9 22 15.1 37.5 15.1z"/><path  d="m1171.4 328.9v-240.6h38.5v240.6z"/><path  d="m1439.9 88.3h20.6v240.6h-20.3l-152.6-208v208h-20.3v-240.6h20.6l151.9 206.9c0 0 0-206.9 0.1-206.9z"/><path  d="m1657.8 182.1c15.4 17.5 22.3 40.9 19.9 69.4h-151.2c3.1 38.5 28.8 62.6 67.3 62.6 23.8 0 48.2-10 59.5-25.1l13.4 11.7c-16.1 20.3-43.3 32-73.2 32-25.8 0-46.4-8.3-62.6-24.8-16.1-16.5-24.4-37.8-24.4-63.9 0-25.8 7.9-47.1 23.8-63.6 15.8-16.2 36.4-24.4 61.8-24.4 27.9 0 49.9 8.6 65.7 26.1zm-131.3 52.3h132.3c-0.3-36.1-26.8-60.5-66.3-60.5-37.2 0-62.2 23.3-66 60.5z"/><path  d="m1933.8 159.1h20.6l-58.1 169.8h-21.3l-16.5-48.8-32.6-91.5-32.7 91.5-16.8 48.8h-21.3l-58.5-169.8h21l48.1 145.7 51.6-145.7h17.2l50.8 146.1 25.8-77.4z"/><path  d="m1974 303.1l11-14.1c14.1 15.5 38.1 25.1 63.9 25.1 30.6 0 50.6-12.4 50.6-31.3 0-17.5-12.4-25.1-53.3-32.3-48.1-7.9-66.4-21-66.4-47.4 0-28.6 27.2-47.1 69.8-47.1 25.8 0 47.5 7.2 65.7 21.6l-10.3 14.1c-15.5-12-33.7-18.2-54.7-18.2-33 0-51.2 10.7-51.2 29.6 0 16.5 11.3 23.3 49.5 29.9 51.2 8.6 70.1 22.3 70.1 50.2 0 29.2-27.8 48.8-70.1 48.8-29.9 0-57.1-11-74.6-28.9z"/><path class="a" d="m477.5 230.2c-73.7 146.4-241.9 145.8-322.1 136.2q-8.8-1.1-16.2-2.2c3.7-11 8.1-22.8 13.1-35.3l58.5-42.6 0.6 0.2c162.6 46.6 266.1-56.3 266.1-56.3z"/><path class="b" d="m477.5 230.2c-73.7 146.4-241.9 145.8-322.1 136.2q-8.8-1.1-16.2-2.2c3.7-11 8.1-22.8 13.1-35.3l5.2-3.7c204.3 49.8 318.5-93.1 320-95z"/><path class="c" d="m496.7 75.9c0 0-313.7 228-355.6 285.6 70.2-149.5 233.9-266.5 292.8-305.2 19.8 5 40.8 11.4 62.8 19.6z"/><path class="d" d="m477.5 230.2c-1.5 1.9-115.7 144.8-320 95l53.3-38.9 0.6 0.2c161.5 46.3 264.8-55 266.1-56.3z"/><path class="e" d="m496.7 75.9c0 0-323.9 235.4-357.5 288.3 3.7-11 8.1-22.8 13.1-35.3 26.5-64.6 72.9-145.8 153.1-214.9-53.2-14.6-130.9-19.6-190.4 31.9 1.8-3 105.4-172.5 381.7-70z"/><path class="f" d="m433.9 56.3c-58.9 38.7-222.6 155.7-292.8 305.2q-0.1 0-0.1 0-1 1.4-1.8 2.7c3.7-11 8.1-22.8 13.1-35.3 26.5-64.6 72.9-145.8 153.1-214.9-53.2-14.6-130.9-19.6-190.4 31.9 1.7-2.7 89.5-146.5 318.9-89.6z"/></svg>