<?xml version="1.0" encoding="utf-8"?>
<!-- Generator: Adobe Illustrator 25.0.0, SVG Export Plug-In . SVG Version: 6.00 Build 0)  -->
<svg version="1.1" id="Layer_1" xmlns="http://www.w3.org/2000/svg" xmlns:xlink="http://www.w3.org/1999/xlink" x="0px" y="0px"
	 viewBox="0 0 2235 1794.55" style="enable-background:new 0 0 2235 1794.55;" xml:space="preserve">
<style type="text/css">
	.st0{fill:none;stroke:#231F20;stroke-width:8;stroke-miterlimit:10;}
	.st1{fill:none;stroke:#231F20;stroke-width:7.8095;stroke-miterlimit:10;}
	.st2{fill:none;stroke:#231F20;stroke-width:7.619;stroke-miterlimit:10;}
	.st3{fill:none;stroke:#231F20;stroke-width:7.4286;stroke-miterlimit:10;}
	.st4{fill:none;stroke:#231F20;stroke-width:7.2381;stroke-miterlimit:10;}
	.st5{fill:none;stroke:#231F20;stroke-width:7.0476;stroke-miterlimit:10;}
	.st6{fill:none;stroke:#231F20;stroke-width:6.8571;stroke-miterlimit:10;}
	.st7{fill:none;stroke:#231F20;stroke-width:6.6667;stroke-miterlimit:10;}
	.st8{fill:none;stroke:#231F20;stroke-width:6.4762;stroke-miterlimit:10;}
	.st9{fill:none;stroke:#231F20;stroke-width:6.2857;stroke-miterlimit:10;}
	.st10{fill:none;stroke:#231F20;stroke-width:6.0952;stroke-miterlimit:10;}
	.st11{fill:none;stroke:#231F20;stroke-width:5.9048;stroke-miterlimit:10;}
	.st12{fill:none;stroke:#231F20;stroke-width:5.7143;stroke-miterlimit:10;}
	.st13{fill:none;stroke:#231F20;stroke-width:5.5238;stroke-miterlimit:10;}
	.st14{fill:none;stroke:#231F20;stroke-width:5.3333;stroke-miterlimit:10;}
	.st15{fill:none;stroke:#231F20;stroke-width:5.1429;stroke-miterlimit:10;}
	.st16{fill:none;stroke:#231F20;stroke-width:4.9524;stroke-miterlimit:10;}
	.st17{fill:none;stroke:#231F20;stroke-width:4.7619;stroke-miterlimit:10;}
	.st18{fill:none;stroke:#231F20;stroke-width:4.5714;stroke-miterlimit:10;}
	.st19{fill:none;stroke:#231F20;stroke-width:4.381;stroke-miterlimit:10;}
	.st20{fill:none;stroke:#231F20;stroke-width:4.1905;stroke-miterlimit:10;}
	.st21{fill:none;stroke:#231F20;stroke-width:4;stroke-miterlimit:10;}
	.st22{fill:#231F20;}
	.st23{fill:#FDC100;}
	.st24{fill:#FF0000;}
	.st25{fill:#EF7411;}
	.st26{fill:#27C622;}
	.st27{fill:#0A5438;}
	.st28{fill:#009B5F;}
	.st29{fill:#CD003B;}
	.st30{fill:#00794D;}
	.st31{fill:none;stroke:#231F20;stroke-width:1.5346;stroke-miterlimit:10;}
	.st32{fill:none;stroke:#231F20;stroke-width:1.8943;stroke-miterlimit:10;}
	.st33{fill:url(#SVGID_1_);}
	.st34{fill:url(#SVGID_2_);}
	.st35{fill:url(#SVGID_3_);}
	.st36{fill:url(#SVGID_4_);}
	.st37{fill:none;}
	.st38{fill:url(#SVGID_5_);}
	.st39{fill:url(#SVGID_6_);}
	.st40{fill:url(#SVGID_7_);}
	.st41{fill:url(#SVGID_8_);}
	.st42{fill:#FFFFFF;}
	.st43{fill:url(#SVGID_9_);}
	.st44{fill:url(#SVGID_10_);}
	.st45{fill:url(#SVGID_11_);}
	.st46{fill:none;stroke:#231F20;stroke-miterlimit:10;}
	.st47{fill:url(#SVGID_12_);}
	.st48{fill:url(#SVGID_13_);}
	.st49{fill:url(#SVGID_14_);}
	.st50{fill:url(#SVGID_15_);}
	.st51{fill:url(#SVGID_16_);}
	.st52{fill:url(#SVGID_17_);}
	.st53{fill:url(#SVGID_18_);}
	.st54{fill:url(#SVGID_19_);}
	.st55{fill:url(#SVGID_20_);}
	.st56{fill:url(#SVGID_21_);}
	.st57{fill:url(#SVGID_22_);}
	.st58{fill:url(#SVGID_23_);}
	.st59{fill:url(#SVGID_24_);}
	.st60{fill:url(#SVGID_25_);}
	.st61{fill:url(#SVGID_26_);}
	.st62{fill:url(#SVGID_27_);}
	.st63{fill:url(#SVGID_28_);}
	.st64{fill:url(#SVGID_29_);}
	.st65{fill:url(#SVGID_30_);}
	.st66{fill:url(#SVGID_31_);}
	.st67{fill:url(#SVGID_32_);}
	.st68{fill:url(#SVGID_33_);}
	.st69{fill:none;stroke:#231F20;stroke-width:8.6656;stroke-miterlimit:10;}
	.st70{fill:url(#SVGID_34_);}
	.st71{fill:url(#SVGID_35_);}
	.st72{fill:url(#SVGID_36_);}
	.st73{fill:url(#SVGID_37_);}
	.st74{fill:url(#SVGID_38_);}
	.st75{fill:url(#SVGID_39_);}
	.st76{fill:url(#SVGID_40_);}
	.st77{fill:url(#SVGID_41_);}
	.st78{fill:url(#SVGID_42_);}
	.st79{fill:url(#SVGID_43_);}
	.st80{fill:url(#SVGID_44_);}
	.st81{fill:url(#SVGID_45_);}
	.st82{fill:url(#SVGID_46_);}
	.st83{fill:url(#SVGID_47_);}
	.st84{fill:url(#SVGID_48_);}
	.st85{fill:url(#SVGID_49_);}
	.st86{fill:url(#SVGID_50_);}
	.st87{fill:url(#SVGID_51_);}
	.st88{fill:url(#SVGID_52_);}
	.st89{fill:url(#SVGID_53_);}
	.st90{fill:url(#SVGID_54_);}
	.st91{fill:url(#SVGID_55_);}
	.st92{fill:url(#SVGID_56_);}
	.st93{fill:url(#SVGID_57_);}
	.st94{fill:url(#SVGID_58_);}
</style>
<path d="M155.21,1514.36c-0.77,1.1-1.55,2.2-2.32,3.31c1.32,0,2.64,0,3.96,0C156.32,1516.56,155.75,1515.47,155.21,1514.36z"/>
<path d="M210.28,1619.57c-0.77,1.1-1.55,2.2-2.32,3.31c1.32,0,2.64,0,3.96,0C211.39,1621.77,210.82,1620.68,210.28,1619.57z"/>
<g>
	<g>
		<path d="M335.24,1683.44h131.31v37.12H278.53v-19.94l130.28-183.9H288.84v-36.78H466.2v19.25L335.24,1683.44z"/>
		<path d="M663.51,1650.1H527.73c3.09,24.75,23.72,40.56,53.62,40.56c19.25,0,38.84-6.87,48.81-17.53l23.37,22.69
			c-16.84,18.22-44.34,29.56-73.22,29.56c-27.84,0-50.18-8.25-67.03-24.41c-16.84-16.16-25.09-38.15-25.09-65.31
			c0-26.47,8.25-47.78,24.41-63.93c16.16-16.16,37.12-24.41,63.59-24.41C635.66,1547.33,669.01,1586.51,663.51,1650.1z
			 M528.08,1620.2h98.65c-2.75-24.41-21.66-39.53-49.5-39.53C550.76,1580.67,533.23,1595.1,528.08,1620.2z"/>
		<path d="M833.99,1550.76h34.37v169.8h-34.37l-0.34-22.69c-14.09,17.53-34.72,26.47-61.87,26.47c-25.09,0-45.37-8.25-60.84-24.75
			c-15.47-16.5-23.37-37.81-23.37-63.93s7.91-47.44,23.37-63.93c15.47-16.5,35.75-24.75,60.84-24.75c27.15,0,47.78,8.94,61.87,26.47
			L833.99,1550.76z M777.96,1689.29c15.47,0,27.84-5.16,37.47-15.12c9.62-9.97,14.44-22.69,14.44-38.5s-4.81-28.87-14.44-38.84
			c-9.62-9.97-22-14.78-37.47-14.78c-15.47,0-27.84,4.81-37.47,14.78c-9.62,9.97-14.44,23.03-14.44,38.84s4.81,28.53,14.44,38.5
			C750.12,1684.13,762.49,1689.29,777.96,1689.29z"/>
		<path d="M915.1,1720.57v-240.61h38.5v240.61H915.1z"/>
		<path d="M1188.71,1479.95h10.66v240.61h-12.38l-163.27-225.83v225.83h-10.66v-240.61h13.06l162.59,224.8V1479.95z"/>
		<path d="M1399.07,1573.45c15.81,17.19,22.34,39.19,19.94,66h-159.15c3.09,45.72,31.97,74.25,74.59,74.25
			c26.12,0,51.9-11.69,65.31-29.22l7.91,5.84c-16.16,20.97-42.97,33.34-73.22,33.34c-24.41,0-44.69-8.25-60.84-24.75
			s-24.06-37.47-24.06-63.25s7.91-46.75,23.72-63.25c15.81-16.5,36.09-24.75,61.18-24.75
			C1361.61,1547.67,1382.92,1556.26,1399.07,1573.45z M1259.52,1629.48h149.52c0.34-21.31-6.53-38.5-20.28-51.9
			c-13.75-13.41-31.97-19.94-54.31-19.94C1291.83,1557.64,1262.61,1586.51,1259.52,1629.48z"/>
		<path d="M1679.9,1550.76h11l-59.12,169.8h-11l-16.84-48.12l-36.78-104.15l-37.12,104.15l-16.84,48.12h-11l-59.47-169.8h11
			l24.75,71.5l29.56,83.18l54.65-154.68h8.94l54.65,155.37l29.22-83.87L1679.9,1550.76z"/>
		<path d="M1715.3,1692.04l7.22-6.53c13.75,16.84,38.5,27.84,66,27.84c35.4,0,58.78-15.12,58.78-37.47
			c0-9.97-4.12-17.87-12.37-23.03c-8.59-5.16-24.75-10.31-48.81-15.12c-25.09-5.16-42.28-10.66-51.22-16.84
			c-9.28-6.19-13.75-15.47-13.75-27.84c0-27.84,25.78-45.03,68.06-45.03c25.44,0,47.09,7.56,64.97,22.69l-6.88,7.22
			c-16.16-13.41-35.4-19.94-58.09-19.94c-36.78,0-57.75,12.72-57.75,35.06c0,9.62,3.78,16.84,11.69,21.31
			c7.91,4.81,22.69,9.28,45.03,13.75c25.78,5.16,44,11,54.31,17.87c9.97,7.22,15.12,17.19,15.12,30.25
			c0,28.53-27.5,47.09-69.09,47.09C1757.24,1723.32,1728.71,1709.91,1715.3,1692.04z"/>
	</g>
	<linearGradient id="SVGID_1_" gradientUnits="userSpaceOnUse" x1="714.6871" y1="1263.538" x2="1819.4546" y2="1037.9165">
		<stop  offset="0" style="stop-color:#0A5438"/>
		<stop  offset="1" style="stop-color:#27C622"/>
	</linearGradient>
	<path class="st33" d="M1856.31,835.95c-301.55,599.26-990.01,596.86-1318.15,557.44c-24.13-2.89-46.24-5.93-66.18-8.98
		c15.12-44.98,32.91-93.35,53.66-144.21l239.27-174.46l2.58,0.73C1432.64,1257.2,1856.31,835.95,1856.31,835.95z"/>
	<linearGradient id="SVGID_2_" gradientUnits="userSpaceOnUse" x1="1834.4907" y1="623.2186" x2="786.3484" y2="1405.7554">
		<stop  offset="0" style="stop-color:#FFFFFF"/>
		<stop  offset="0.1218" style="stop-color:#FFF7E0;stop-opacity:0.8782"/>
		<stop  offset="1" style="stop-color:#FDC100;stop-opacity:0"/>
	</linearGradient>
	<path class="st34" d="M1856.27,836.05c-301.6,599.17-989.96,596.74-1318.09,557.36c-24.15-2.93-46.25-5.95-66.19-9.01
		c15.1-44.97,32.89-93.32,53.66-144.19l21.18-15.42C1382.76,1428.68,1850.05,843.83,1856.27,836.05z"/>
	<path class="st37" d="M1935.04,204.59c0,0-1283.97,933.06-1455.6,1168.92C766.81,761.76,1436.7,282.63,1677.68,124.54
		C1759.06,144.76,1844.79,171.11,1935.04,204.59z"/>
	<linearGradient id="SVGID_3_" gradientUnits="userSpaceOnUse" x1="1050.8574" y1="770.1215" x2="1495.3188" y2="1537.8275">
		<stop  offset="0" style="stop-color:#0A5438"/>
		<stop  offset="0.193" style="stop-color:#0B5837"/>
		<stop  offset="0.3794" style="stop-color:#0E6335"/>
		<stop  offset="0.5632" style="stop-color:#137731"/>
		<stop  offset="0.7454" style="stop-color:#1A922C"/>
		<stop  offset="0.9248" style="stop-color:#23B525"/>
		<stop  offset="1" style="stop-color:#27C622"/>
	</linearGradient>
	<path class="st35" d="M1856.27,836.01v0.05c-6.22,7.78-473.5,592.62-1309.45,388.74l218.07-159.05l2.61,0.73
		C1428.37,1255.95,1850.92,841.31,1856.27,836.01z"/>
	<linearGradient id="SVGID_4_" gradientUnits="userSpaceOnUse" x1="1698.4966" y1="-852.5635" x2="776.9908" y2="1178.785">
		<stop  offset="0.0385" style="stop-color:#CD003B"/>
		<stop  offset="0.4709" style="stop-color:#FF0000"/>
		<stop  offset="0.9056" style="stop-color:#FDC100"/>
	</linearGradient>
	<path class="st36" d="M1935.02,204.57c0,0-1325.72,963.43-1463.04,1179.84c15.12-44.98,32.91-93.35,53.66-144.21
		c108.31-264.62,298.21-596.69,626.4-879.67c-217.94-59.83-535.6-80.06-779.24,130.72C380.17,478.94,804.14-214.82,1935.02,204.57z"
		/>
	<linearGradient id="SVGID_5_" gradientUnits="userSpaceOnUse" x1="178.4819" y1="-8.6061" x2="1424.8459" y2="1052.4386">
		<stop  offset="0" style="stop-color:#FFFFFF"/>
		<stop  offset="0.1837" style="stop-color:#FFF5D5;stop-opacity:0.8163"/>
		<stop  offset="0.5939" style="stop-color:#FEDB6D;stop-opacity:0.4061"/>
		<stop  offset="1" style="stop-color:#FDC100;stop-opacity:0"/>
	</linearGradient>
	<path class="st38" d="M1677.68,124.54C1436.7,282.63,766.81,761.76,479.44,1373.51c-0.05,0.05-0.05,0.05-0.05,0.09
		c-2.79,3.8-5.26,7.36-7.41,10.8c15.1-44.97,32.89-93.32,53.66-144.19c108.32-264.63,298.21-596.7,626.38-879.67
		C934.1,300.7,616.45,280.48,372.81,491.27C379.58,479.93,739.13-108.49,1677.68,124.54z"/>
</g>
</svg>
